<svg xmlns="http://www.w3.org/2000/svg" viewBox="0 0 320 200">
  <defs>
    <linearGradient id="dg" x1="0%" y1="0%" x2="100%" y2="100%">
      <stop offset="0%" stop-color="#0d0d0d"/>
      <stop offset="100%" stop-color="#1a0a2e"/>
    </linearGradient>
    <linearGradient id="tg" x1="0%" y1="0%" x2="100%" y2="0%">
      <stop offset="0%" stop-color="#fff"/>
      <stop offset="50%" stop-color="#a78bfa"/>
      <stop offset="100%" stop-color="#60a5fa"/>
    </linearGradient>
  </defs>
  <!-- Background -->
  <rect width="320" height="200" fill="url(#dg)"/>
  <!-- Particles -->
  <circle cx="30" cy="30" r="50" fill="rgba(130,100,255,0.15)"/>
  <circle cx="290" cy="160" r="40" fill="rgba(60,180,255,0.12)"/>
  <circle cx="60" cy="170" r="28" fill="rgba(255,80,160,0.10)"/>
  <!-- Logo placeholder -->
  <rect x="140" y="30" width="40" height="14" rx="7" fill="rgba(255,255,255,0.15)"/>
  <!-- Title -->
  <rect x="80" y="58" width="160" height="16" rx="4" fill="url(#tg)" opacity="0.9"/>
  <!-- Subtitle -->
  <rect x="100" y="82" width="120" height="8" rx="4" fill="rgba(255,255,255,0.25)"/>
  <rect x="110" y="96" width="100" height="8" rx="4" fill="rgba(255,255,255,0.15)"/>
  <!-- Countdown blocks -->
  <g transform="translate(52,118)">
    <rect width="44" height="44" rx="6" fill="rgba(167,139,250,0.18)"/>
    <rect x="10" y="8" width="24" height="18" rx="3" fill="#a78bfa" opacity="0.8"/>
    <rect x="12" y="30" width="20" height="6" rx="3" fill="rgba(255,255,255,0.25)"/>
  </g>
  <g transform="translate(106,118)">
    <rect width="44" height="44" rx="6" fill="rgba(167,139,250,0.18)"/>
    <rect x="10" y="8" width="24" height="18" rx="3" fill="#a78bfa" opacity="0.8"/>
    <rect x="12" y="30" width="20" height="6" rx="3" fill="rgba(255,255,255,0.25)"/>
  </g>
  <g transform="translate(160,118)">
    <rect width="44" height="44" rx="6" fill="rgba(167,139,250,0.18)"/>
    <rect x="10" y="8" width="24" height="18" rx="3" fill="#a78bfa" opacity="0.8"/>
    <rect x="12" y="30" width="20" height="6" rx="3" fill="rgba(255,255,255,0.25)"/>
  </g>
  <g transform="translate(214,118)">
    <rect width="44" height="44" rx="6" fill="rgba(167,139,250,0.18)"/>
    <rect x="10" y="8" width="24" height="18" rx="3" fill="#a78bfa" opacity="0.8"/>
    <rect x="12" y="30" width="20" height="6" rx="3" fill="rgba(255,255,255,0.25)"/>
  </g>
  <!-- Footer line -->
  <rect x="0" y="188" width="320" height="12" fill="rgba(255,255,255,0.04)"/>
  <rect x="110" y="192" width="100" height="4" rx="2" fill="rgba(255,255,255,0.12)"/>
</svg>
